<?xml version="1.0" encoding="UTF-8"?>
<svg width="400px" height="400px" viewBox="0 0 400 400" version="1.1" xmlns="http://www.w3.org/2000/svg" xmlns:xlink="http://www.w3.org/1999/xlink">
    <!-- Generator: Sketch 51.3 (57544) - http://www.bohemiancoding.com/sketch -->
    <title>logo-blue</title>
    <desc>Created with Sketch.</desc>
    <defs>
        <circle id="path-1" cx="200" cy="200" r="200"></circle>
        <linearGradient x1="50%" y1="0%" x2="50%" y2="100%" id="linearGradient-3">
            <stop stop-color="#2188FF" offset="0%"></stop>
            <stop stop-color="#005CC5" offset="100%"></stop>
        </linearGradient>
    </defs>
    <g id="Page-1" stroke="none" stroke-width="1" fill="none" fill-rule="evenodd">
        <g id="logo-blue">
            <mask id="mask-2" fill="white">
                <use xlink:href="#path-1"></use>
            </mask>
            <use id="Mask" fill="#D8D8D8" fill-rule="nonzero" xlink:href="#path-1"></use>
            <rect id="Rectangle" stroke="#979797" fill="url(#linearGradient-3)" fill-rule="nonzero" mask="url(#mask-2)" x="0.5" y="0.5" width="399" height="399"></rect>
            <g id="settings-gears" mask="url(#mask-2)" fill="#FDFDFD" fill-rule="nonzero">
                <g transform="translate(79.000000, 76.000000)" id="Shape">
                    <path d="M17.0582137,93.8945583 C18.424008,98.5781209 20.3193961,103.094413 22.7165045,107.331923 L15.8875328,115.946332 C13.6576645,118.762046 13.9085247,122.776528 16.4171265,125.313458 L28.1796818,137.078121 C30.716157,139.615051 34.7299199,139.837799 37.5451286,137.607531 L46.1022481,130.833092 C50.506238,133.370301 55.1889614,135.349385 60.0667983,136.743302 L61.3489726,147.75525 C61.7670729,151.323678 64.7773951,154 68.3451843,154 L84.9855764,154 C88.5533657,154 91.5636879,151.3234 91.9817882,147.75525 L93.2082158,137.133599 C98.4484062,135.76756 103.46561,133.73244 108.176207,131.083997 L116.454593,137.635409 C119.269801,139.865677 123.283564,139.614772 125.820039,137.10572 L137.582595,125.341057 C140.11907,122.804127 140.342057,118.789645 138.112188,115.973932 L131.673444,107.805576 C134.349286,103.177491 136.439787,98.243302 137.833455,93.0858074 L147.756369,91.9427951 C151.324437,91.5246198 154,88.5137581 154,84.9453295 L154,68.3019551 C154,64.7335264 151.324158,61.7226647 147.756369,61.3044895 L137.972822,60.1614772 C136.634622,55.0597393 134.628019,50.1810282 132.063949,45.608979 L138.084594,37.9981897 C140.314462,35.1824765 140.063602,31.1679942 137.555,28.6310644 L125.820318,16.8942795 C123.283843,14.3573497 119.27008,14.134323 116.454871,16.3645909 L109.068433,22.2190442 C104.274216,19.4033309 99.1452401,17.256698 93.7659616,15.8070239 L92.6510274,6.24475018 C92.2329271,2.67632151 89.2226049,0 85.6548157,0 L69.0144236,0 C65.4466343,0 62.4363121,2.67632151 62.0182118,6.24475018 L60.9032777,15.8070239 C55.3843536,17.2845764 50.1162898,19.5148443 45.2105796,22.442071 L37.5454073,16.3645909 C34.7301986,14.134323 30.7164357,14.3852281 28.1799605,16.8942795 L16.4174053,28.6589428 C13.8809301,31.1958726 13.6579433,35.2103548 15.8878116,38.0260681 L22.2986829,46.1386676 C19.7343344,50.7664736 17.7831996,55.7009413 16.5010253,60.8305576 L6.24363121,62.0014482 C2.67584195,62.4196235 0,65.4304852 0,68.9989138 L0,85.6422882 C0,89.2107169 2.67584195,92.2215786 6.24363121,92.6397538 L17.0582137,93.8945583 Z M77.3482776,48.8710246 C92.5113819,48.8710246 104.859278,61.2211332 104.859278,76.3869551 C104.859278,91.552777 92.5113819,103.902886 77.3482776,103.902886 C62.1854519,103.902886 49.8372775,91.552777 49.8372775,76.3869551 C49.8372775,61.2211332 62.1851732,48.8710246 77.3482776,48.8710246 Z"></path>
                    <path d="M241.972895,98.1199209 L233.166224,90.6929701 C230.454608,88.403459 226.45638,88.5151425 223.884552,90.9442579 L219.019915,95.4953593 C214.910415,93.5129777 210.549016,92.1169344 206.047549,91.3072292 L204.678182,84.606221 C203.97924,81.1440335 200.764106,78.7428389 197.240879,79.0220476 L185.75027,79.9992779 C182.227602,80.3064075 179.459791,83.1822568 179.34796,86.728207 L179.124578,93.5408986 C174.706985,95.132388 170.54129,97.3102157 166.739045,100.046461 L160.924126,96.193381 C157.960052,94.2389203 154.018298,94.7973376 151.726047,97.5056618 L144.289303,106.356577 C141.996493,109.064901 142.108324,113.057585 144.540363,115.626305 L149.628941,121.042674 C147.867328,125.007437 146.609232,129.167925 145.882612,133.439539 L138.613614,134.919345 C135.146861,135.617367 132.7425,138.828266 133.022077,142.346575 L134.000596,153.822051 C134.30813,157.340081 137.187772,160.104247 140.738398,160.21593 L148.594507,160.466939 C150.020908,164.208335 151.893793,167.754564 154.158086,171.076868 L149.769009,177.694114 C147.811971,180.653726 148.371125,184.590568 151.082741,186.880079 L159.889412,194.30703 C162.601587,196.596541 166.599256,196.484858 169.171643,194.055742 L174.930926,188.667015 C178.705213,190.426029 182.674925,191.73831 186.756747,192.520094 L188.350614,200.393779 C189.049557,203.855967 192.26469,206.257161 195.787359,205.977952 L207.277967,205.000722 C210.800635,204.693593 213.568446,201.818022 213.680277,198.271793 L213.931896,190.565354 C218.125549,189.085548 222.09526,187.075246 225.757717,184.590568 L232.104391,188.778698 C235.067906,190.733159 239.00966,190.174741 241.302469,187.466417 L248.739214,178.671344 C251.031464,175.96302 250.919633,171.970336 248.487594,169.401616 L243.371059,163.985247 C245.244503,160.020484 246.614709,155.832354 247.396965,151.532261 L254.386386,150.108297 C257.853139,149.410275 260.2575,146.199375 259.977923,142.681067 L258.999404,131.20559 C258.69187,127.687561 255.812228,124.923395 252.261602,124.811712 L245.244223,124.588345 C243.790144,120.511898 241.833106,116.659098 239.401067,113.084947 L243.230991,107.333249 C245.244223,104.374195 244.68507,100.409432 241.972895,98.1199209 Z M198.667,164.459623 C186.253788,165.520895 175.293816,156.278808 174.259662,143.882223 C173.19699,131.485357 182.451543,120.540098 194.864196,119.507026 C207.277408,118.446033 218.23738,127.688119 219.271534,140.084705 C220.334206,152.48185 211.079653,163.42683 198.667,164.459623 Z"></path>
                    <path d="M57.3405171,194.702981 C53.8215967,195.066141 51.1125865,198.02701 51.0846586,201.575081 L51.0008748,208.642729 C50.9450189,212.19052 53.5702452,215.207539 57.0891656,215.654785 L62.2837624,216.324954 C63.1495286,219.48193 64.3783579,222.498949 65.9702505,225.348356 L62.6188977,229.48279 C60.3846625,232.248112 60.5522302,236.215213 63.0378168,238.757332 L67.9810621,243.813633 C70.4666488,246.355751 74.4324162,246.635105 77.2531381,244.456146 L81.4141219,241.243579 C84.3465555,242.975572 87.4468361,244.344684 90.6861979,245.294207 L91.2447567,250.657797 C91.6078199,254.177653 94.5681815,256.887384 98.1150298,256.915319 L105.181078,256.999125 C108.727647,257.054996 111.744144,254.429071 112.190991,250.909215 L112.833333,245.824979 C116.352533,244.958703 119.703886,243.64602 122.887392,241.914028 L126.797303,245.070724 C129.562169,247.305553 133.528216,247.137941 136.069659,244.651694 L141.124616,239.707134 C143.666058,237.221166 143.945338,233.254065 141.767237,230.432593 L138.778389,226.549298 C140.621633,223.476407 142.046238,220.20797 143.023715,216.77192 L147.659753,216.297019 C151.178674,215.933859 153.887405,212.97271 153.915612,209.424919 L153.999117,202.356992 C154.055252,198.80948 151.430025,195.792181 147.911105,195.345215 L143.386499,194.758573 C142.520733,191.350458 141.236327,188.054085 139.560651,184.981195 L142.381373,181.51721 C144.615608,178.751609 144.44804,174.784787 141.962454,172.242668 L137.019488,167.186367 C134.533901,164.64397 130.567575,164.364616 127.747132,166.543854 L124.367572,169.141843 C121.184067,167.214303 117.776579,165.733728 114.202082,164.728055 L113.754955,160.342203 C113.391892,156.822068 110.43181,154.112616 106.884682,154.084681 L99.8189134,154.000875 C96.2720651,153.945004 93.2558476,156.570929 92.8087213,160.090785 L92.2501625,164.448981 C88.5639537,165.398504 85.0171054,166.851422 81.7216085,168.750748 L78.230616,165.901341 C75.46575,163.666511 71.4997033,163.834403 68.9582608,166.320371 L63.8753757,171.293145 C61.3339332,173.779114 61.0546538,177.746215 63.2330331,180.567407 L66.2213227,184.422767 C64.4897904,187.495657 63.1213213,190.763816 62.2276273,194.200145 L57.3405171,194.702981 Z M102.946843,186.713188 C113.084685,186.824929 121.211436,195.177883 121.100004,205.31842 C120.988292,215.458958 112.637559,223.58787 102.499716,223.476407 C92.3618743,223.364666 84.2351231,215.011992 84.3465555,204.871175 C84.4585466,194.730917 92.8090006,186.601725 102.946843,186.713188 Z"></path>
                </g>
            </g>
        </g>
    </g>
</svg>